<svg xmlns="http://www.w3.org/2000/svg" version="1.1" xmlns:xlink="http://www.w3.org/1999/xlink" xmlns:svgjs="http://svgjs.dev/svgjs" width="100%" height="100%" viewBox="0 0 1000 600"><rect width="1000" height="600" x="0" y="0" fill="#ffffff"/><g><rect width="333.3333333333333" height="333.3333333333333" rx="13.333333333333334" ry="13.333333333333334" y="297.3451718981514" fill="#ffddaa" transform="matrix(0.4543422966352344,0,0,0.4543422966352344,0,89.17978415643111)" x="275.1229553222656"/><path d="M421.6697722931491 539.0118426478791L404.80333437767206 539.0118426478791L404.80333437767206 389.01184656708847L478.77593518463726 389.01184656708847L478.77593518463726 403.3954078351095L421.6697722931491 403.3954078351095L421.6697722931491 454.56549782233503L476.72114071777713 454.56549782233503L476.72114071777713 468.94905909035606L421.6697722931491 468.94905909035606L421.6697722931491 539.0118426478791Z " fill="#ffffff" transform="matrix(0.4543422966352344,0,0,0.4543422966352344,0,89.17978415643111)"/><path d="M733.1958805682759 507.7618417438755L733.1958805682759 507.7618417438755Q691.7896322136124 507.7618417438755 691.7896322136124 453.8555938859173L691.7896322136124 453.8555938859173L691.7896322136124 444.48059425844633Q691.7896322136124 417.28875506117515 702.3365067945173 403.94240142484495Q712.8833813754222 390.57434640048814 734.3026513576301 390.57434640048814L734.3026513576301 390.57434640048814Q738.8382414551797 390.57434640048814 743.6776509851012 391.116881101152Q748.5170605150225 391.65941580181584 752.9007408963863 392.61427687498417L752.9007408963863 392.61427687498417L752.9007408963863 404.15941530511043Q748.5170605150225 403.0743459037828 743.9163662533932 402.44500565101276Q739.2939706037374 401.8156653982427 735.0839013265861 401.8156653982427L735.0839013265861 401.8156653982427Q719.1333811270695 401.8156653982427 711.8851175262007 412.14552609888204Q704.6151525373054 422.4536854114948 704.6151525373054 445.26184422740226L704.6151525373054 445.26184422740226L704.6151525373054 453.07434391696137Q704.6151525373054 474.7974333315412 711.5595967058024 485.64812734481774Q718.525742262326 496.5205227461209 732.41463059932 496.5205227461209L732.41463059932 496.5205227461209Q736.017061011728 496.5205227461209 740.1620261247995 495.739272777165Q744.3069912378712 494.9580228082091 748.2132410826507 493.39552287029727L748.2132410826507 493.39552287029727L743.3521301647029 499.32000180154625L743.3521301647029 451.2080245466778L719.9146310960255 451.2080245466778L719.9146310960255 440.5743444136668L755.8521296679976 440.5743444136668L755.8521296679976 504.6368418680518Q750.8608104218903 506.1993418059636 744.6108106702429 506.98059177491956Q738.3608109185957 507.7618417438755 733.1958805682759 507.7618417438755ZM819.3069882576391 507.7618417438755L819.3069882576391 507.7618417438755Q806.4814679339462 507.7618417438755 800.9476139871751 502.1411822449982Q795.3920586523775 496.5205227461209 795.3920586523775 483.23927327387037L795.3920586523775 483.23927327387037L795.3920586523775 403.0743459037828L770.3920596457881 403.0743459037828L770.3920596457881 392.1368463384L807.8920581556721 392.1368463384L807.8920581556721 480.5700025466043Q807.8920581556721 489.79309245788943 810.9302524793895 493.30871731819104Q813.9901481911336 496.82434217849266 822.1064673130645 496.82434217849266L822.1064673130645 496.82434217849266Q826.1646268740299 496.82434217849266 829.5283420181456 496.12989776164295Q832.8920571622614 495.4137519567667 836.0170570380851 494.17677283925315L836.0170570380851 494.17677283925315L836.0170570380851 505.114272404636Q831.9588974771196 506.5031612383354 827.813932364048 507.1325014911054Q823.6689672509763 507.7618417438755 819.3069882576391 507.7618417438755ZM882.7401454592541 507.7618417438755L882.7401454592541 507.7618417438755Q871.1733056411013 507.7618417438755 864.532680904976 505.114272404636Q857.8920561688507 502.44500167736993 855.1576812775049 495.95628665743055Q852.4233063861593 489.48927302551766 852.4233063861593 478.07434292355066L852.4233063861593 478.07434292355066L852.4233063861593 424.94934503454846L864.6194864570822 424.94934503454846L864.6194864570822 477.44500267078064Q864.6194864570822 484.95368292796803 866.181986394994 489.16375220511935Q867.7444863329058 493.39552287029727 871.7158403417651 495.10993252439494Q875.7088957386509 496.82434217849266 882.89205517544 496.82434217849266L882.89205517544 496.82434217849266Q886.6463953040337 496.82434217849266 889.6845896277512 496.3469116419085Q892.7444853394952 495.89118249335087 895.7826796632125 494.7844117039967Q898.8208739869301 493.699342302669 902.4233043993379 491.8330229323854L902.4233043993379 491.8330229323854L898.0396240179741 499.64552262194456L898.0396240179741 424.94934503454846L910.235804088897 424.94934503454846L910.235804088897 502.77052249776824Q904.4632348738339 505.26618212082184 897.7358045856024 506.5031612383354Q891.0083742973709 507.7618417438755 882.7401454592541 507.7618417438755ZM970.6958711308744 507.7618417438755L970.6958711308744 507.7618417438755Q956.9588925100661 507.7618417438755 950.9476080267109 502.1411822449982Q944.914622155329 496.5205227461209 944.914622155329 483.23927327387037L944.914622155329 483.23927327387037L944.914622155329 435.88684459993124L924.6021229624753 435.88684459993124L924.6021229624753 424.94934503454846L944.914622155329 424.94934503454846L944.914622155329 398.3868460900473L957.4146216586237 398.3868460900473L957.4146216586237 424.94934503454846L988.6646204168603 424.94934503454846L988.6646204168603 435.88684459993124L957.4146216586237 435.88684459993124L957.4146216586237 480.5700025466043Q957.4146216586237 489.79309245788943 960.7783368027394 493.30871731819104Q964.1420519468552 496.82434217849266 973.2132321419544 496.82434217849266L973.2132321419544 496.82434217849266Q977.5752111352916 496.82434217849266 981.4163568159915 496.12989776164295Q985.2358011086649 495.4137519567667 988.6646204168603 494.17677283925315L988.6646204168603 494.17677283925315L988.6646204168603 505.114272404636Q984.3026414235231 506.5031612383354 979.8538568780798 507.1325014911054Q975.3833709446099 507.7618417438755 970.6958711308744 507.7618417438755ZM1043.2002085275885 507.7618417438755L1043.2002085275885 507.7618417438755Q1024.9276398092306 507.7618417438755 1016.0083693303175 498.1481268481124Q1007.1108002394305 488.53441195234933 1007.1108002394305 468.6993432960797L1007.1108002394305 468.6993432960797L1007.1108002394305 462.4493435444324Q1007.1108002394305 442.28875406776444 1014.5326749445117 432.8486502762138Q1021.954549649593 423.3868450966366 1037.5795490287114 423.3868450966366L1037.5795490287114 423.3868450966366Q1053.3564581240155 423.3868450966366 1060.713228665017 432.8486502762138Q1068.048297817992 442.28875406776444 1068.048297817992 462.4493435444324L1068.048297817992 462.4493435444324L1068.048297817992 470.8911834867616L1013.208890274892 470.8911834867616L1013.208890274892 460.7349338903347L1058.673298190521 460.7349338903347L1055.852117747069 464.315662914716L1055.852117747069 462.92677408101656Q1055.852117747069 447.60559413427 1051.5552429178115 440.8130596819588Q1047.258368088554 434.0205252296477 1037.5795490287114 434.0205252296477L1037.5795490287114 434.0205252296477Q1027.9007299688685 434.0205252296477 1023.603855139611 440.8130596819588Q1019.3069803103535 447.60559413427 1019.3069803103535 462.92677408101656L1019.3069803103535 462.92677408101656L1019.3069803103535 468.2219127594955Q1019.3069803103535 479.0075026086925 1021.6507302172213 485.344307912446Q1023.994480124089 491.659411828173 1029.4632299067803 494.3937867195187Q1034.9319796894717 497.1281616108644 1044.1333682127304 497.1281616108644L1044.1333682127304 497.1281616108644Q1048.66895831028 497.1281616108644 1053.4432636761217 496.5205227461209Q1058.1958676539368 495.89118249335087 1063.6646174366283 494.4805922716249L1063.6646174366283 494.4805922716249L1063.6646174366283 505.26618212082184Q1058.9771176228928 506.35125152214954 1053.5951733923075 507.0673973270258Q1048.2132291617224 507.7618417438755 1043.2002085275885 507.7618417438755ZM1086.4944776405623 506.1993418059636L1086.4944776405623 428.37816434274384Q1092.4189565718111 425.73059500350433 1099.1463868600426 424.55872005007046Q1105.8521157602477 423.3868450966366 1114.2939557025768 423.3868450966366L1114.2939557025768 423.3868450966366Q1126.1646149531014 423.3868450966366 1132.8052396892267 426.0344144358761Q1139.445864425352 428.70368516314215 1142.1802393166977 435.19240018308153Q1144.9146142080435 441.6594138149944 1144.9146142080435 453.07434391696137L1144.9146142080435 453.07434391696137L1144.9146142080435 506.1993418059636L1132.740135525147 506.1993418059636L1132.740135525147 453.70368416973145Q1132.740135525147 446.04309419635814 1131.1776355872353 441.8330249192068Q1129.6151356493233 437.60125425402896 1125.6220802524376 435.97365015203746Q1121.6507262435784 434.3243446620194 1114.4458654187627 434.3243446620194L1114.4458654187627 434.3243446620194Q1110.8651363943816 434.3243446620194 1107.7401365185578 434.8017751986036Q1104.6151366427341 435.2575043471612 1101.4901367669104 436.27746958440923Q1098.3651368910869 437.2974348216572 1094.610796762493 439.3156639081267L1094.610796762493 439.3156639081267L1098.6689563234586 431.5031642185675L1098.6689563234586 506.1993418059636L1086.4944776405623 506.1993418059636ZM1259.3026304960053 506.1993418059636L1246.4771101723125 506.1993418059636L1246.4771101723125 392.1368463384L1302.7271079371383 392.1368463384L1302.7271079371383 403.0743459037828L1259.3026304960053 403.0743459037828L1259.3026304960053 441.9849346353927L1301.1646079992265 441.9849346353927L1301.1646079992265 452.9224342007755L1259.3026304960053 452.9224342007755L1259.3026304960053 506.1993418059636ZM1330.7001971033653 506.1993418059636L1330.7001971033653 431.9805947551517Q1338.360787076739 429.3330254159122 1347.193252003546 427.44500465760206Q1356.0257169303532 425.5786852873185 1364.6845707529478 424.4719144979643Q1373.3651259635692 423.3868450966366 1380.7001951165441 423.3868450966366L1380.7001951165441 423.3868450966366L1380.7001951165441 434.3243446620194Q1374.2982856487108 434.3243446620194 1367.1151262119217 435.19240018308153Q1359.9319667751327 436.03875431611715 1352.9007170545294 437.60125425402896Q1345.8694673339262 439.16375419194077 1340.0751967308363 441.35559438262266L1340.0751967308363 441.35559438262266L1343.2001966066603 435.40941406334707L1343.2001966066603 506.1993418059636L1330.7001971033653 506.1993418059636ZM1433.8251930055462 507.7618417438755L1433.8251930055462 507.7618417438755Q1415.5526242871886 507.7618417438755 1406.6333538082752 498.1481268481124Q1397.7357847173882 488.53441195234933 1397.7357847173882 468.6993432960797L1397.7357847173882 468.6993432960797L1397.7357847173882 462.4493435444324Q1397.7357847173882 442.28875406776444 1405.1576594224696 432.8486502762138Q1412.5795341275507 423.3868450966366 1428.204533506669 423.3868450966366L1428.204533506669 423.3868450966366Q1443.9814426019732 423.3868450966366 1451.3382131429748 432.8486502762138Q1458.6732822959498 442.28875406776444 1458.6732822959498 462.4493435444324L1458.6732822959498 462.4493435444324L1458.6732822959498 470.8911834867616L1403.8338747528499 470.8911834867616L1403.8338747528499 460.7349338903347L1449.2982826684788 460.7349338903347L1446.4771022250268 464.315662914716L1446.4771022250268 462.92677408101656Q1446.4771022250268 447.60559413427 1442.1802273957694 440.8130596819588Q1437.8833525665116 434.0205252296477 1428.204533506669 434.0205252296477L1428.204533506669 434.0205252296477Q1418.5257144468262 434.0205252296477 1414.2288396175688 440.8130596819588Q1409.9319647883112 447.60559413427 1409.9319647883112 462.92677408101656L1409.9319647883112 462.92677408101656L1409.9319647883112 468.2219127594955Q1409.9319647883112 479.0075026086925 1412.2757146951792 485.344307912446Q1414.6194646020467 491.659411828173 1420.0882143847382 494.3937867195187Q1425.5569641674294 497.1281616108644 1434.758352690688 497.1281616108644L1434.758352690688 497.1281616108644Q1439.2939427882377 497.1281616108644 1444.0682481540796 496.5205227461209Q1448.8208521318945 495.89118249335087 1454.2896019145858 494.4805922716249L1454.2896019145858 494.4805922716249L1454.2896019145858 505.26618212082184Q1449.6021021008505 506.35125152214954 1444.2201578702654 507.0673973270258Q1438.8382136396801 507.7618417438755 1433.8251930055462 507.7618417438755ZM1511.9501899011377 507.7618417438755L1511.9501899011377 507.7618417438755Q1493.67762118278 507.7618417438755 1484.7583507038667 498.1481268481124Q1475.86078161298 488.53441195234933 1475.86078161298 468.6993432960797L1475.86078161298 468.6993432960797L1475.86078161298 462.4493435444324Q1475.86078161298 442.28875406776444 1483.282656318061 432.8486502762138Q1490.7045310231422 423.3868450966366 1506.3295304022606 423.3868450966366L1506.3295304022606 423.3868450966366Q1522.1064394975647 423.3868450966366 1529.4632100385663 432.8486502762138Q1536.7982791915413 442.28875406776444 1536.7982791915413 462.4493435444324L1536.7982791915413 462.4493435444324L1536.7982791915413 470.8911834867616L1481.9588716484413 470.8911834867616L1481.9588716484413 460.7349338903347L1527.4232795640703 460.7349338903347L1524.6020991206185 464.315662914716L1524.6020991206185 462.92677408101656Q1524.6020991206185 447.60559413427 1520.305224291361 440.8130596819588Q1516.0083494621033 434.0205252296477 1506.3295304022606 434.0205252296477L1506.3295304022606 434.0205252296477Q1496.650711342418 434.0205252296477 1492.3538365131603 440.8130596819588Q1488.0569616839027 447.60559413427 1488.0569616839027 462.92677408101656L1488.0569616839027 462.92677408101656L1488.0569616839027 468.2219127594955Q1488.0569616839027 479.0075026086925 1490.4007115907705 485.344307912446Q1492.7444614976382 491.659411828173 1498.2132112803297 494.3937867195187Q1503.6819610630212 497.1281616108644 1512.8833495862798 497.1281616108644L1512.8833495862798 497.1281616108644Q1517.4189396838294 497.1281616108644 1522.1932450496708 496.5205227461209Q1526.9458490274862 495.89118249335087 1532.4145988101775 494.4805922716249L1532.4145988101775 494.4805922716249L1532.4145988101775 505.26618212082184Q1527.727098996442 506.35125152214954 1522.3451547658567 507.0673973270258Q1516.9632105352716 507.7618417438755 1511.9501899011377 507.7618417438755ZM1668.981433661277 506.1993418059636L1656.1776147256105 506.1993418059636L1656.1776147256105 403.37816533615455L1629.7670254972952 403.37816533615455L1629.7670254972952 392.1368463384L1695.392022889592 392.1368463384L1695.392022889592 403.37816533615455L1668.981433661277 403.37816533615455L1668.981433661277 506.1993418059636ZM1754.7670205302418 506.1993418059636L1742.2670210269468 506.1993418059636L1742.2670210269468 435.88684459993124L1714.142022144534 435.88684459993124L1714.142022144534 424.94934503454846L1754.7670205302418 424.94934503454846L1754.7670205302418 506.1993418059636ZM1746.0213611555407 410.2575053405719L1746.0213611555407 410.2575053405719Q1741.008340521407 410.2575053405719 1737.9701461976895 407.37122073304033Q1734.931951873972 404.48493612550874 1734.931951873972 399.6455265955874L1734.931951873972 399.6455265955874Q1734.931951873972 394.6325059614536 1737.9701461976895 391.83302690602824Q1741.008340521407 389.01184646257633 1746.0213611555407 389.01184646257633L1746.0213611555407 389.01184646257633Q1751.012680401648 389.01184646257633 1754.072576113392 391.83302690602824Q1757.1107704371095 394.6325059614536 1757.1107704371095 399.6455265955874L1757.1107704371095 399.6455265955874Q1757.1107704371095 404.48493612550874 1754.072576113392 407.37122073304033Q1751.012680401648 410.2575053405719 1746.0213611555407 410.2575053405719ZM1791.0083385345854 539.0118405021121L1791.0083385345854 428.37816434274384Q1801.7939283837825 423.3868450966366 1816.7895875101306 423.3868450966366L1816.7895875101306 423.3868450966366Q1829.2895870134255 423.3868450966366 1836.6463575544274 427.2930949414162Q1843.9814267074019 431.19934478619575 1847.1932321353322 440.03180971300293Q1850.3833361752352 448.86427463981005 1850.3833361752352 464.0118434823442L1850.3833361752352 464.0118434823442Q1850.3833361752352 479.7887525776484 1847.041322419146 489.4024674734115Q1843.6776072750306 499.01618236917454 1836.2557325699488 503.3781613625117Q1828.833857864868 507.7618417438755 1816.6376777939447 507.7618417438755L1816.6376777939447 507.7618417438755Q1811.0170182950676 507.7618417438755 1805.852087944748 506.89378622281333Q1800.708858982455 506.0474320897778 1796.6506994214894 504.48493215186596L1796.6506994214894 504.48493215186596L1800.079518729685 493.39552287029727Q1804.6151088272347 495.26184224058085 1808.9770878205716 496.12989776164295Q1813.3607682019353 496.9762518946785 1817.7444485832991 496.9762518946785L1817.7444485832991 496.9762518946785Q1825.5569482728586 496.9762518946785 1830.0057328183018 493.93805757096106Q1834.4545173637455 490.8781618592171 1836.3208367340287 483.695002422428Q1838.2088574923384 476.51184298563885 1838.2088574923384 464.16375319853006L1838.2088574923384 464.16375319853006Q1838.2088574923384 452.5969133803772 1836.4076422861351 446.12989974846437Q1834.6064270799309 439.64118472852493 1830.3095522506735 436.97191400125894Q1826.0126774214157 434.3243446620194 1818.3520874480425 434.3243446620194L1818.3520874480425 434.3243446620194Q1813.664587634307 434.3243446620194 1809.2158030888638 435.19240018308153Q1804.7670185434201 436.03875431611715 1800.2314284458705 438.230594506799L1800.2314284458705 438.230594506799L1803.2045186055082 431.19934478619575L1803.2045186055082 539.0118405021121L1791.0083385345854 539.0118405021121ZM1894.1333344367665 507.7618417438755L1894.1333344367665 507.7618417438755Q1887.4276055365615 507.7618417438755 1881.5682307693921 506.7418765066275Q1875.7088560022228 505.72191126937946 1869.9145853991329 503.5517724667241L1869.9145853991329 503.5517724667241L1869.9145853991329 492.4406617971289Q1876.0126754345945 494.63250198781077 1881.8720502017638 495.739272777165Q1887.7314249689332 496.82434217849266 1893.677605288209 496.82434217849266L1893.677605288209 496.82434217849266Q1903.6819451684498 496.82434217849266 1908.5213546983712 493.85125201885484Q1913.3607642282925 490.8781618592171 1913.3607642282925 484.8017732117822L1913.3607642282925 484.8017732117822Q1913.3607642282925 481.6767733359585 1911.4076393059029 479.15941232487836Q1909.4545143835132 476.66375270182476 1905.3095492704413 474.32000279495696Q1901.1645841573697 471.9762528880893 1894.3069455409789 469.6325029812215L1894.3069455409789 469.6325029812215Q1884.7583348092955 466.5075031053978 1878.9857655942321 462.9918782450962Q1873.2131963791692 459.4762533847946 1870.6307312040092 454.94066328724494Q1868.0482660288496 450.4267745777219 1868.0482660288496 444.3286845422604L1868.0482660288496 444.3286845422604Q1868.0482660288496 433.5430946930635 1875.6220504501164 428.46496989485007Q1883.1958348713836 423.3868450966366 1899.298264787086 423.3868450966366L1899.298264787086 423.3868450966366Q1904.7670145697778 423.3868450966366 1910.235764352469 424.0812895134863Q1915.7045141351603 424.7974353183626 1923.5170138247197 426.81566440483203L1923.5170138247197 426.81566440483203L1923.5170138247197 450.7305940100936L1911.3208337537965 450.7305940100936L1911.3208337537965 428.855594879328L1916.9631946407005 436.3642751365154Q1911.1689240376106 435.10559463097536 1907.4145839090172 434.71496964649737Q1903.6819451684498 434.3243446620194 1900.0795147560418 434.3243446620194L1900.0795147560418 434.3243446620194Q1890.2270845919868 434.3243446620194 1885.3876750620655 436.90680983717925Q1880.5482655321441 439.4892750123391 1880.5482655321441 444.7844136908181L1880.5482655321441 444.7844136908181Q1880.5482655321441 447.75750385045586 1882.4145849024278 450.3399690256157Q1884.302605660738 452.9224342007755 1888.5126749378894 455.26618410764326Q1892.7444456030669 457.609934014511 1899.927605039856 460.10559363756465L1899.927605039856 460.10559363756465Q1909.4545143835132 463.3825032295742 1915.1619794344967 466.8981280898758Q1920.8694444854798 470.4137529501774 1923.3651041085334 474.8625374956208Q1925.8607637315874 479.33302342909076 1925.8607637315874 485.40941207652565L1925.8607637315874 485.40941207652565Q1925.8607637315874 496.6724324623068 1917.9614584899216 502.20628640907785Q1910.0838546362831 507.7618417438755 1894.1333344367665 507.7618417438755Z " fill="#ffddaa" transform="matrix(0.4543422966352344,0,0,0.4543422966352344,0,89.17978415643111)"/></g></svg>